<svg xmlns="http://www.w3.org/2000/svg">
  <defs>

    <symbol id='arrow' viewBox="0 0 13 8">
      <path d="M11.4671 -1.45631e-07L6.5 4.94673L1.53293 -1.94682e-08L-2.45768e-08 1.52661L6.5 8L13 1.52661L11.4671 -1.45631e-07Z"/>
    </symbol>
    
    <symbol id='user' viewBox="0 0 22 25">
      <path d="M10.7178 12.0426C12.3722 12.0426 13.8046 11.4492 14.9754 10.2785C16.1457 9.10797 16.7393 7.67574 16.7393 6.02112C16.7393 4.36707 16.1459 2.93465 14.9752 1.76373C13.8045 0.593376 12.372 0 10.7178 0C9.06316 0 7.63094 0.593376 6.4604 1.76392C5.28986 2.93446 4.69629 4.36687 4.69629 6.02112C4.69629 7.67574 5.28986 9.10816 6.4604 10.2787C7.63132 11.4491 9.06374 12.0426 10.7178 12.0426ZM7.49647 2.7998C8.39464 1.90163 9.44826 1.46503 10.7178 1.46503C11.9871 1.46503 13.0409 1.90163 13.9393 2.7998C14.8375 3.69816 15.2743 4.75197 15.2743 6.02112C15.2743 7.29065 14.8375 8.34427 13.9393 9.24263C13.0409 10.141 11.9871 10.5776 10.7178 10.5776C9.44864 10.5776 8.39502 10.1408 7.49647 9.24263C6.59811 8.34446 6.16132 7.29065 6.16132 6.02112C6.16132 4.75197 6.59811 3.69816 7.49647 2.7998Z"/>
      <path d="M21.2534 19.2237C21.2196 18.7366 21.1513 18.2052 21.0508 17.6441C20.9493 17.0787 20.8187 16.5443 20.6623 16.0558C20.5005 15.5509 20.281 15.0523 20.0092 14.5746C19.7275 14.0786 19.3964 13.6468 19.0248 13.2915C18.6363 12.9197 18.1606 12.6209 17.6105 12.4028C17.0623 12.186 16.4549 12.0761 15.805 12.0761C15.5498 12.0761 15.303 12.1808 14.8264 12.4912C14.533 12.6825 14.1899 12.9037 13.8069 13.1484C13.4794 13.3571 13.0357 13.5526 12.4878 13.7296C11.9531 13.9026 11.4103 13.9903 10.8743 13.9903C10.3388 13.9903 9.79592 13.9026 9.26091 13.7296C8.7135 13.5528 8.26966 13.3573 7.94274 13.1486C7.56337 12.9062 7.22005 12.6849 6.92231 12.491C6.44604 12.1806 6.19923 12.0759 5.94403 12.0759C5.29401 12.0759 4.68671 12.186 4.13873 12.403C3.58903 12.6207 3.11314 12.9195 2.72424 13.2917C2.35268 13.6472 2.02157 14.0788 1.74004 14.5746C1.46863 15.0523 1.2489 15.5507 1.08716 16.056C0.930946 16.5445 0.800293 17.0787 0.698822 17.6441C0.598114 18.2044 0.530022 18.736 0.496262 19.2243C0.463074 19.7017 0.446289 20.1986 0.446289 20.7006C0.446289 22.0056 0.861137 23.0621 1.6792 23.8412C2.48715 24.6101 3.55603 24.9999 4.85627 24.9999H16.8939C18.1938 24.9999 19.2627 24.6101 20.0708 23.8412C20.8891 23.0626 21.3039 22.0058 21.3039 20.7004C21.3037 20.1967 21.2867 19.6998 21.2534 19.2237ZM19.0607 22.7798C18.5268 23.2879 17.818 23.5349 16.8937 23.5349H4.85627C3.93178 23.5349 3.22301 23.2879 2.68933 22.78C2.16576 22.2816 1.91132 21.6012 1.91132 20.7006C1.91132 20.2321 1.92677 19.7696 1.95767 19.3256C1.98781 18.8899 2.04942 18.4114 2.14078 17.9029C2.231 17.4007 2.34582 16.9294 2.48238 16.5027C2.61342 16.0936 2.79214 15.6884 3.01377 15.2982C3.2253 14.9263 3.46867 14.6072 3.73723 14.3501C3.98843 14.1095 4.30505 13.9127 4.67812 13.7651C5.02316 13.6285 5.41093 13.5537 5.83188 13.5425C5.88319 13.5698 5.97455 13.6218 6.12256 13.7183C6.42373 13.9146 6.77087 14.1385 7.15462 14.3836C7.58721 14.6594 8.14454 14.9085 8.81039 15.1235C9.49113 15.3436 10.1854 15.4554 10.8745 15.4554C11.5637 15.4554 12.2581 15.3436 12.9385 15.1237C13.6049 14.9083 14.162 14.6594 14.5952 14.3832C14.9879 14.1322 15.3253 13.9148 15.6265 13.7183C15.7745 13.622 15.8659 13.5698 15.9172 13.5425C16.3383 13.5537 16.7261 13.6285 17.0713 13.7651C17.4442 13.9127 17.7608 14.1097 18.012 14.3501C18.2806 14.607 18.5239 14.9261 18.7355 15.2984C18.9573 15.6884 19.1362 16.0938 19.2671 16.5025C19.4038 16.9297 19.5188 17.4009 19.6088 17.9027C19.7 18.4121 19.7618 18.8909 19.792 19.3258V19.3261C19.823 19.7685 19.8387 20.2308 19.8389 20.7006C19.8387 21.6014 19.5842 22.2816 19.0607 22.7798Z"/>
    </symbol>

    <symbol id='search' viewBox="0 0 25 25">
    <path d="M11.0095 0C4.93901 0 0 4.93901 0 11.0095C0 17.0803 4.93901 22.0189 11.0095 22.0189C17.0803 22.0189 22.0189 17.0803 22.0189 11.0095C22.0189 4.93901 17.0803 0 11.0095 0ZM11.0095 19.9865C6.05962 19.9865 2.03252 15.9594 2.03252 11.0095C2.03252 6.05967 6.05962 2.03252 11.0095 2.03252C15.9593 2.03252 19.9864 6.05962 19.9864 11.0095C19.9864 15.9593 15.9593 19.9865 11.0095 19.9865Z" />
    <path d="M24.702 23.2652L18.8754 17.4386C18.4784 17.0416 17.8354 17.0416 17.4384 17.4386C17.0414 17.8353 17.0414 18.479 17.4384 18.8756L23.265 24.7022C23.4634 24.9007 23.7233 25 23.9835 25C24.2433 25 24.5034 24.9007 24.702 24.7022C25.099 24.3055 25.099 23.6619 24.702 23.2652Z"/>
    </symbol>

    <symbol id='heart' viewBox="0 0 28 25" >
    <path d="M14 25C13.6014 25 13.2171 24.8551 12.9176 24.5918C11.7864 23.5992 10.6959 22.6664 9.73373 21.8436L9.72882 21.8393C6.90793 19.4268 4.47198 17.3434 2.7771 15.2911C0.882477 12.9967 0 10.8214 0 8.44489C0 6.13595 0.78891 4.00581 2.22125 2.44657C3.67068 0.868907 5.65952 0 7.82202 0C9.43829 0 10.9185 0.512812 12.2214 1.52407C12.8789 2.03452 13.4749 2.65925 14 3.38794C14.5253 2.65925 15.1211 2.03452 15.7788 1.52407C17.0817 0.512812 18.5619 0 20.1782 0C22.3405 0 24.3295 0.868907 25.779 2.44657C27.2113 4.00581 28 6.13595 28 8.44489C28 10.8214 27.1177 12.9967 25.2231 15.2909C23.5282 17.3434 21.0925 19.4266 18.272 21.8389C17.3082 22.663 16.2159 23.5973 15.0822 24.5922C14.7829 24.8551 14.3984 25 14 25ZM7.82202 1.64606C6.12308 1.64606 4.56235 2.32652 3.42694 3.56224C2.27466 4.81661 1.63998 6.55057 1.63998 8.44489C1.63998 10.4436 2.38019 12.2312 4.03983 14.2408C5.64392 16.1834 8.02988 18.2239 10.7924 20.5866L10.7976 20.5909C11.7634 21.417 12.8582 22.3534 13.9977 23.3533C15.144 22.3515 16.2405 21.4135 17.2082 20.5862C19.9706 18.2235 22.3563 16.1834 23.9604 14.2408C25.6198 12.2312 26.36 10.4436 26.36 8.44489C26.36 6.55057 25.7253 4.81661 24.5731 3.56224C23.4379 2.32652 21.8769 1.64606 20.1782 1.64606C18.9336 1.64606 17.791 2.0431 16.782 2.82604C15.8829 3.52408 15.2565 4.40649 14.8893 5.02393C14.7005 5.34143 14.3681 5.53095 14 5.53095C13.6319 5.53095 13.2995 5.34143 13.1107 5.02393C12.7437 4.40649 12.1173 3.52408 11.218 2.82604C10.209 2.0431 9.06638 1.64606 7.82202 1.64606Z"/>
    </symbol>
    <symbol id='backet' viewBox="0 0 30 25" >
    <path d="M29.0096 8.32689C28.6208 7.83907 28.0374 7.55921 27.409 7.55921H21.738L18.6628 0.517694C18.4722 0.0811109 17.9636 -0.118402 17.527 0.0723689C17.0903 0.263025 16.8909 0.771614 17.0817 1.20825L19.8552 7.55927H9.59154L12.3651 1.20825C12.5558 0.771614 12.3564 0.263083 11.9198 0.0723689C11.4832 -0.118402 10.9746 0.0809958 10.784 0.517694L7.70879 7.55927H2.03775C1.40936 7.55927 0.826008 7.83907 0.437161 8.32695C0.0554463 8.80592 -0.0854035 9.42166 0.0507303 10.0165L3.0792 23.2445C3.29068 24.1682 4.10777 24.8132 5.06623 24.8132H24.3805C25.339 24.8132 26.1561 24.1682 26.3676 23.2445L29.396 10.0164C29.5322 9.4216 29.3913 8.80586 29.0096 8.32689ZM24.3805 23.0878H5.06623C4.91974 23.0878 4.79143 22.9917 4.76112 22.8593L1.73265 9.63141C1.70889 9.5276 1.74875 9.44949 1.78648 9.40228C1.82145 9.35834 1.90064 9.28466 2.03775 9.28466H6.95531L6.72934 9.80211C6.53868 10.2387 6.73802 10.7473 7.17466 10.938C7.28704 10.9871 7.40414 11.0103 7.51945 11.0103C7.85199 11.0103 8.16889 10.8169 8.31049 10.4927L8.83806 9.28478H20.6088L21.1364 10.4927C21.278 10.817 21.5949 11.0103 21.9274 11.0103C22.0427 11.0103 22.1598 10.9871 22.2722 10.938C22.7089 10.7473 22.9083 10.2387 22.7175 9.80211L22.4916 9.28466H27.4091C27.5462 9.28466 27.6254 9.35834 27.6604 9.40228C27.6981 9.44955 27.738 9.52765 27.7142 9.63135L24.6858 22.8594C24.6554 22.9917 24.527 23.0878 24.3805 23.0878Z"/>
    </symbol>

    <symbol id='clothes' viewBox="0 0 32 32">
    <g id="SVGRepo_bgCarrier" stroke-width="0"></g><g id="SVGRepo_tracerCarrier" stroke-linecap="round" stroke-linejoin="round"></g><g id="SVGRepo_iconCarrier"> <title>users</title> <path d="M16 21.916c-4.797 0.020-8.806 3.369-9.837 7.856l-0.013 0.068c-0.011 0.048-0.017 0.103-0.017 0.16 0 0.414 0.336 0.75 0.75 0.75 0.357 0 0.656-0.25 0.731-0.585l0.001-0.005c0.875-3.885 4.297-6.744 8.386-6.744s7.511 2.859 8.375 6.687l0.011 0.057c0.076 0.34 0.374 0.59 0.732 0.59 0 0 0.001 0 0.001 0h-0c0.057-0 0.112-0.007 0.165-0.019l-0.005 0.001c0.34-0.076 0.59-0.375 0.59-0.733 0-0.057-0.006-0.112-0.018-0.165l0.001 0.005c-1.045-4.554-5.055-7.903-9.849-7.924h-0.002zM9.164 10.602c0 0 0 0 0 0 2.582 0 4.676-2.093 4.676-4.676s-2.093-4.676-4.676-4.676c-2.582 0-4.676 2.093-4.676 4.676v0c0.003 2.581 2.095 4.673 4.675 4.676h0zM9.164 2.75c0 0 0 0 0 0 1.754 0 3.176 1.422 3.176 3.176s-1.422 3.176-3.176 3.176c-1.754 0-3.176-1.422-3.176-3.176v0c0.002-1.753 1.423-3.174 3.175-3.176h0zM22.926 10.602c2.582 0 4.676-2.093 4.676-4.676s-2.093-4.676-4.676-4.676c-2.582 0-4.676 2.093-4.676 4.676v0c0.003 2.581 2.095 4.673 4.675 4.676h0zM22.926 2.75c1.754 0 3.176 1.422 3.176 3.176s-1.422 3.176-3.176 3.176c-1.754 0-3.176-1.422-3.176-3.176v0c0.002-1.753 1.423-3.174 3.176-3.176h0zM30.822 19.84c-0.878-3.894-4.308-6.759-8.406-6.759-0.423 0-0.839 0.031-1.246 0.089l0.046-0.006c-0.049 0.012-0.092 0.028-0.133 0.047l0.004-0.002c-0.751-2.129-2.745-3.627-5.089-3.627-2.334 0-4.321 1.485-5.068 3.561l-0.012 0.038c-0.017-0.004-0.030-0.014-0.047-0.017-0.359-0.053-0.773-0.084-1.195-0.084-0.002 0-0.005 0-0.007 0h0c-4.092 0.018-7.511 2.874-8.392 6.701l-0.011 0.058c-0.011 0.048-0.017 0.103-0.017 0.16 0 0.414 0.336 0.75 0.75 0.75 0.357 0 0.656-0.25 0.731-0.585l0.001-0.005c0.737-3.207 3.56-5.565 6.937-5.579h0.002c0.335 0 0.664 0.024 0.985 0.070l-0.037-0.004c-0.008 0.119-0.036 0.232-0.036 0.354 0.006 2.987 2.429 5.406 5.417 5.406s5.411-2.419 5.416-5.406v-0.001c0-0.12-0.028-0.233-0.036-0.352 0.016-0.002 0.031 0.005 0.047 0.001 0.294-0.044 0.634-0.068 0.98-0.068 0.004 0 0.007 0 0.011 0h-0.001c3.379 0.013 6.203 2.371 6.93 5.531l0.009 0.048c0.076 0.34 0.375 0.589 0.732 0.59h0c0.057-0 0.112-0.007 0.165-0.019l-0.005 0.001c0.34-0.076 0.59-0.375 0.59-0.733 0-0.057-0.006-0.112-0.018-0.165l0.001 0.005zM16 18.916c-0 0-0 0-0.001 0-2.163 0-3.917-1.753-3.917-3.917s1.754-3.917 3.917-3.917c2.163 0 3.917 1.754 3.917 3.917 0 0 0 0 0 0.001v-0c-0.003 2.162-1.754 3.913-3.916 3.916h-0z"></path> </g>
    </symbol>
    
    <symbol id='car' viewBox="0 0 80 80">
    <g id="SVGRepo_bgCarrier" stroke-width="0"></g><g id="SVGRepo_tracerCarrier" stroke-linecap="round" stroke-linejoin="round"></g><g id="SVGRepo_iconCarrier"><title></title><path d="M78.91,51.58l-12-26A1,1,0,0,0,66,25H51V6a1,1,0,0,0-1-1H2A1,1,0,0,0,1,6V66a1,1,0,0,0,1,1H7.06a9,9,0,0,0,17.88,0H55.06a9,9,0,0,0,17.88,0H78a1,1,0,0,0,1-1V52a.9.9,0,0,0-.09-.4ZM51,27H65.36L76.44,51H51ZM16,73a7,7,0,1,1,7-7A7,7,0,0,1,16,73Zm48,0a7,7,0,1,1,7-7A7,7,0,0,1,64,73Zm13-8H72.94a9,9,0,0,0-17.88,0H24.94A9,9,0,0,0,7.06,65H3V7H49V52a1,1,0,0,0,1,1H77Z"></path></g>
    </symbol>

    <symbol id='messages' viewBox="0 0 64 64">
      <g id="SVGRepo_bgCarrier" stroke-width="0"></g><g id="SVGRepo_tracerCarrier" stroke-linecap="round" stroke-linejoin="round"></g><g id="SVGRepo_iconCarrier"> <g> <path d="M10,18h44c1.104,0,2-0.896,2-2s-0.896-2-2-2H10c-1.104,0-2,0.896-2,2S8.896,18,10,18z"></path> <path d="M10,28h44c1.104,0,2-0.896,2-2s-0.896-2-2-2H10c-1.104,0-2,0.896-2,2S8.896,28,10,28z"></path> <path d="M56,36c0-1.104-0.896-2-2-2H10c-1.104,0-2,0.896-2,2s0.896,2,2,2h44C55.104,38,56,37.104,56,36z"></path> <path d="M0,47c0,1.104,0.896,2,2,2h14v10c0,0.781,0.455,1.491,1.164,1.817C17.432,60.94,17.716,61,18,61 c0.469,0,0.933-0.165,1.302-0.481L32.74,49H62c1.104,0,2-0.896,2-2V5c0-1.104-0.896-2-2-2H2C0.896,3,0,3.896,0,5V47z M4,7h56v38H32 c-0.478,0-0.939,0.171-1.302,0.481L20,54.651V47c0-1.104-0.896-2-2-2H4V7z"></path> </g> </g>
    </symbol>

  </defs>
</svg>
