<svg xmlns="http://www.w3.org/2000/svg"><defs><symbol id="arrow" viewBox="0 0 13 8"><path d="M11.467 0L6.5 4.947 1.533 0 0 1.527 6.5 8 13 1.527 11.467 0z"/></symbol><symbol id="user" viewBox="0 0 22 25"><path d="M10.718 12.043c1.654 0 3.087-.594 4.257-1.764 1.17-1.171 1.764-2.603 1.764-4.258 0-1.654-.593-3.086-1.764-4.257C13.805.594 12.372 0 10.718 0 9.063 0 7.63.593 6.46 1.764 5.29 2.934 4.696 4.367 4.696 6.02c0 1.655.594 3.087 1.764 4.258 1.171 1.17 2.604 1.764 4.258 1.764zM7.496 2.8c.899-.898 1.952-1.335 3.222-1.335s2.323.437 3.221 1.335c.899.898 1.335 1.952 1.335 3.221 0 1.27-.436 2.323-1.335 3.222-.898.898-1.952 1.335-3.221 1.335-1.27 0-2.323-.437-3.222-1.335-.898-.899-1.335-1.952-1.335-3.222 0-1.269.437-2.323 1.335-3.221zm13.757 16.424a14.887 14.887 0 00-.202-1.58 12.45 12.45 0 00-.389-1.588 7.846 7.846 0 00-.653-1.481 5.58 5.58 0 00-.984-1.284 4.341 4.341 0 00-1.415-.888 4.889 4.889 0 00-1.805-.327c-.255 0-.502.105-.979.415-.293.191-.636.413-1.02.657-.327.21-.77.405-1.318.582a5.239 5.239 0 01-1.614.26 5.242 5.242 0 01-1.613-.26c-.547-.177-.991-.373-1.318-.581-.38-.243-.723-.464-1.02-.658-.477-.31-.724-.415-.979-.415-.65 0-1.257.11-1.805.327a4.337 4.337 0 00-1.415.889 5.583 5.583 0 00-.984 1.283 7.856 7.856 0 00-.653 1.481A12.474 12.474 0 00.7 17.644c-.1.56-.169 1.092-.203 1.58-.033.478-.05.975-.05 1.477 0 1.305.415 2.361 1.233 3.14.808.77 1.877 1.159 3.177 1.159h12.038c1.3 0 2.369-.39 3.177-1.159.818-.778 1.233-1.835 1.233-3.14 0-.504-.017-1.001-.05-1.477zm-2.192 3.556c-.534.508-1.243.755-2.167.755H4.856c-.924 0-1.633-.247-2.167-.755-.523-.498-.778-1.179-.778-2.08 0-.468.016-.93.047-1.374.03-.436.091-.915.183-1.423.09-.502.205-.974.341-1.4a6.4 6.4 0 01.532-1.205 4.14 4.14 0 01.723-.948c.251-.24.568-.437.941-.585a3.37 3.37 0 011.154-.223 4.3 4.3 0 01.29.176c.302.197.649.42 1.033.666.432.275.99.524 1.655.74.681.22 1.375.331 2.064.331.69 0 1.384-.111 2.064-.331.667-.216 1.224-.465 1.657-.74.393-.252.73-.47 1.031-.666.149-.096.24-.148.291-.175.421.01.81.086 1.154.222.373.148.69.345.941.585.269.257.512.576.723.948.222.39.401.796.532 1.205.137.427.252.898.342 1.4.091.51.153.988.183 1.423.031.442.047.905.047 1.375 0 .9-.255 1.58-.778 2.079z"/></symbol><symbol id="search" viewBox="0 0 25 25"><path d="M11.01 0C4.938 0 0 4.939 0 11.01c0 6.07 4.939 11.009 11.01 11.009 6.07 0 11.009-4.939 11.009-11.01C22.019 4.94 17.08 0 11.009 0zm0 19.986c-4.95 0-8.977-4.027-8.977-8.977s4.027-8.976 8.976-8.976c4.95 0 8.977 4.027 8.977 8.976 0 4.95-4.027 8.977-8.977 8.977z"/><path d="M24.702 23.265l-5.827-5.826a1.016 1.016 0 10-1.437 1.437l5.827 5.826a1.012 1.012 0 001.437 0 1.016 1.016 0 000-1.437z"/></symbol><symbol id="heart" viewBox="0 0 28 25"><path d="M14 25c-.399 0-.783-.145-1.082-.408a325.333 325.333 0 00-3.184-2.748l-.005-.005c-2.821-2.412-5.257-4.496-6.952-6.548C.882 12.997 0 10.821 0 8.445c0-2.309.789-4.44 2.221-5.998C3.671.869 5.66 0 7.822 0c1.616 0 3.096.513 4.4 1.524A9.02 9.02 0 0114 3.388a9.021 9.021 0 011.779-1.864C17.082.513 18.562 0 20.179 0c2.162 0 4.15.869 5.6 2.447C27.211 4.006 28 6.136 28 8.445c0 2.376-.882 4.552-2.777 6.846-1.695 2.052-4.13 4.136-6.951 6.548a321.28 321.28 0 00-3.19 2.753A1.64 1.64 0 0114 25zM7.822 1.646c-1.699 0-3.26.68-4.395 1.916C2.275 4.817 1.64 6.551 1.64 8.445c0 1.999.74 3.786 2.4 5.796 1.604 1.942 3.99 3.983 6.752 6.346l.006.004c.965.826 2.06 1.762 3.2 2.762a383.634 383.634 0 013.21-2.767c2.763-2.362 5.148-4.403 6.752-6.345 1.66-2.01 2.4-3.797 2.4-5.796 0-1.894-.635-3.628-1.787-4.883a5.897 5.897 0 00-4.395-1.916c-1.244 0-2.387.397-3.396 1.18-.9.698-1.525 1.58-1.893 2.198A1.026 1.026 0 0114 5.53c-.368 0-.7-.19-.89-.507-.366-.618-.993-1.5-1.892-2.198-1.009-.783-2.152-1.18-3.396-1.18z"/></symbol><symbol id="backet" viewBox="0 0 30 25"><path d="M29.01 8.327a2.035 2.035 0 00-1.601-.768h-5.671L18.663.518a.863.863 0 10-1.581.69l2.773 6.351H9.592l2.773-6.35a.863.863 0 00-1.581-.691L7.709 7.559H2.038c-.629 0-1.212.28-1.6.768a1.986 1.986 0 00-.387 1.69l3.028 13.227a2.021 2.021 0 001.987 1.57h19.315c.958 0 1.775-.646 1.987-1.57l3.028-13.228a1.986 1.986 0 00-.386-1.69zm-4.63 14.76H5.067a.309.309 0 01-.305-.228L1.733 9.631a.263.263 0 01.053-.229.313.313 0 01.252-.117h4.917l-.226.517a.863.863 0 001.581.69l.528-1.207h11.77l.528 1.208a.863.863 0 101.582-.69l-.226-.518h4.917c.137 0 .216.073.251.117a.263.263 0 01.054.23l-3.028 13.227a.309.309 0 01-.305.229z"/></symbol><symbol id="clothes" viewBox="0 0 32 32"><path d="M16 21.916c-4.797.02-8.806 3.369-9.837 7.856l-.013.068a.75.75 0 001.464.325l.001-.005c.875-3.885 4.297-6.744 8.386-6.744s7.511 2.859 8.375 6.687l.011.057a.75.75 0 00.732.59h.001a.745.745 0 00.165-.019l-.005.001a.751.751 0 00.572-.898l.001.005c-1.045-4.554-5.055-7.903-9.849-7.924h-.002zM9.164 10.602a4.676 4.676 0 10-4.676-4.676 4.682 4.682 0 004.675 4.676zm0-7.852a3.176 3.176 0 11-3.176 3.176A3.18 3.18 0 019.163 2.75zm13.762 7.852a4.676 4.676 0 10-4.676-4.676 4.682 4.682 0 004.675 4.676zm0-7.852a3.176 3.176 0 11-3.176 3.176 3.18 3.18 0 013.176-3.176zm7.896 17.09c-.878-3.894-4.308-6.759-8.406-6.759-.423 0-.839.031-1.246.089l.046-.006a.717.717 0 00-.133.047l.004-.002c-.751-2.129-2.745-3.627-5.089-3.627a5.387 5.387 0 00-5.068 3.561l-.012.038c-.017-.004-.03-.014-.047-.017a8.35 8.35 0 00-1.195-.084h-.007a8.653 8.653 0 00-8.392 6.701l-.011.058a.75.75 0 001.464.325l.001-.005c.737-3.207 3.56-5.565 6.937-5.579h.002c.335 0 .664.024.985.07l-.037-.004c-.008.119-.036.232-.036.354a5.417 5.417 0 0010.833 0v-.001c0-.12-.028-.233-.036-.352.016-.002.031.005.047.001.294-.044.634-.068.98-.068h.011-.001a7.14 7.14 0 016.93 5.531l.009.048a.745.745 0 00.897.571l-.005.001a.751.751 0 00.572-.898l.001.005zM16 18.916h-.001a3.917 3.917 0 113.917-3.917V15A3.92 3.92 0 0116 18.916z" id="SVGRepo_iconCarrier"/></symbol><symbol id="car" viewBox="0 0 80 80"><path d="M78.91 51.58l-12-26A1 1 0 0066 25H51V6a1 1 0 00-1-1H2a1 1 0 00-1 1v60a1 1 0 001 1h5.06a9 9 0 0017.88 0h30.12a9 9 0 0017.88 0H78a1 1 0 001-1V52a.9.9 0 00-.09-.4zM51 27h14.36l11.08 24H51zM16 73a7 7 0 117-7 7 7 0 01-7 7zm48 0a7 7 0 117-7 7 7 0 01-7 7zm13-8h-4.06a9 9 0 00-17.88 0H24.94a9 9 0 00-17.88 0H3V7h46v45a1 1 0 001 1h27z" id="SVGRepo_iconCarrier"/></symbol><symbol id="messages" viewBox="0 0 64 64"><g id="SVGRepo_iconCarrier"><path d="M10 18h44a2 2 0 000-4H10a2 2 0 000 4zm0 10h44a2 2 0 000-4H10a2 2 0 000 4zm46 8a2 2 0 00-2-2H10a2 2 0 000 4h44a2 2 0 002-2z"/><path d="M0 47a2 2 0 002 2h14v10a2 2 0 003.302 1.519L32.74 49H62a2 2 0 002-2V5a2 2 0 00-2-2H2a2 2 0 00-2 2v42zM4 7h56v38H32c-.478 0-.939.171-1.302.481L20 54.651V47a2 2 0 00-2-2H4V7z"/></g></symbol></defs></svg>